<?xml version="1.0" standalone="no"?>
<!DOCTYPE svg PUBLIC "-//W3C//DTD SVG 20010904//EN"
 "http://www.w3.org/TR/2001/REC-SVG-20010904/DTD/svg10.dtd">
<svg version="1.0" xmlns="http://www.w3.org/2000/svg"
 width="1024.000000pt" height="1024.000000pt" viewBox="0 0 1024.000000 1024.000000"
 preserveAspectRatio="xMidYMid meet">

<g transform="translate(0.000000,1024.000000) scale(0.100000,-0.100000)"
fill="#000000" stroke="none">
<path d="M4449 8755 c-50 -16 -106 -65 -145 -127 -25 -39 -94 -172 -94 -180 0
-3 28 1 63 8 34 8 77 14 95 14 35 0 52 14 109 85 l31 40 79 -2 c77 -2 121 -15
363 -107 19 -8 73 -21 120 -30 160 -30 336 -109 508 -228 166 -116 274 -176
541 -300 471 -221 501 -237 501 -264 0 -29 -117 -296 -165 -377 -19 -32 -35
-66 -35 -76 0 -26 49 -68 110 -93 30 -13 93 -44 140 -70 47 -25 153 -76 235
-114 174 -78 335 -164 335 -179 0 -6 -21 -46 -46 -90 -74 -129 -273 -483 -324
-575 -25 -47 -77 -138 -115 -203 l-69 -119 50 -40 c27 -23 138 -130 247 -240
l198 -198 26 47 c24 46 90 159 228 393 34 58 78 134 99 170 20 36 49 85 65
110 15 25 54 92 86 150 32 58 75 130 95 160 20 30 40 64 44 75 4 10 44 80 89
154 l82 134 -1 71 c-2 148 -47 183 -371 287 -103 34 -210 72 -236 85 -107 53
-241 200 -337 369 -58 102 -191 264 -243 296 -18 10 -66 32 -108 48 -41 17
-115 49 -165 71 -49 23 -111 51 -138 61 -27 11 -195 93 -375 184 -318 159
-739 365 -748 365 -3 0 -97 43 -210 96 -282 132 -323 145 -458 150 -78 3 -123
0 -156 -11z m2403 -1242 c20 -27 61 -89 92 -139 31 -50 93 -134 138 -188 120
-140 168 -200 168 -208 0 -4 -11 -3 -24 1 -41 16 -550 271 -570 286 -17 13
-17 15 7 47 13 18 34 55 46 81 26 60 90 167 100 167 4 0 23 -21 43 -47z m713
-632 c3 -5 36 -19 73 -31 104 -34 162 -69 162 -96 0 -13 -20 -56 -43 -96 -24
-40 -56 -94 -71 -120 -29 -53 -41 -62 -26 -22 19 49 10 90 -41 195 -59 120
-82 179 -69 179 5 0 11 -4 15 -9z"/>
<path d="M4540 8364 c-148 -19 -332 -70 -463 -128 -96 -42 -269 -148 -341
-209 -187 -156 -364 -419 -437 -650 -48 -148 -61 -245 -62 -432 -1 -247 28
-385 123 -595 61 -136 102 -203 199 -325 116 -145 160 -184 320 -280 171 -104
248 -140 400 -189 200 -65 361 -79 576 -51 189 25 488 133 561 202 l29 28 128
-130 c127 -130 127 -130 115 -160 -7 -17 -13 -71 -13 -121 0 -82 3 -94 27
-130 29 -43 286 -303 814 -824 306 -303 357 -349 415 -377 186 -91 375 -84
528 18 75 50 112 93 158 186 46 93 62 195 45 294 -25 148 -7 127 -656 777
-325 326 -607 603 -626 615 -47 30 -172 31 -215 3 -22 -15 -30 -16 -33 -6 -7
19 -188 215 -217 234 -26 17 -33 50 -14 62 13 7 114 219 143 295 38 105 67
272 73 429 5 139 3 169 -20 296 -41 218 -105 378 -221 553 -212 317 -552 530
-954 597 -90 15 -321 26 -382 18z m350 -174 c215 -31 475 -150 648 -297 125
-107 260 -295 322 -451 96 -243 122 -468 80 -699 -62 -343 -234 -630 -500
-829 -151 -114 -343 -197 -528 -229 -97 -17 -356 -20 -446 -5 -223 36 -510
188 -686 362 -263 261 -373 527 -373 903 0 251 36 403 138 591 189 346 514
573 930 649 83 16 324 18 415 5z m1000 -2276 l95 -96 -25 -16 c-14 -9 -56 -47
-93 -84 l-69 -69 -41 37 c-23 21 -66 59 -95 87 l-53 49 88 93 c48 51 90 93 93
94 3 0 48 -42 100 -95z m417 -207 c33 -19 153 -135 651 -631 255 -253 474
-479 487 -501 31 -55 49 -136 40 -192 -7 -51 -34 -115 -46 -108 -4 3 -5 -3 -2
-13 5 -20 -22 -49 -31 -33 -4 5 -41 -5 -89 -25 -45 -18 -96 -34 -112 -34 -82
0 -165 51 -315 195 -58 55 -157 148 -220 207 -126 116 -330 318 -597 589 -94
96 -176 173 -182 171 -15 -5 -14 -33 4 -75 13 -31 13 -36 1 -31 -50 19 -41
167 15 259 61 101 158 180 263 217 60 20 102 22 133 5z m-131 -678 c4 -7 -1
-16 -10 -21 -9 -5 -14 -13 -11 -19 9 -13 -9 -11 -22 2 -9 9 -9 16 0 30 13 21
32 25 43 8z m275 -269 c5 0 9 -6 9 -13 0 -20 -29 -16 -36 5 -3 10 -10 18 -15
18 -6 0 -7 5 -4 10 4 6 12 4 21 -5 9 -8 20 -15 25 -15z m69 -70 c31 -29 33
-50 4 -50 -9 0 -12 -5 -8 -12 4 -7 -7 0 -23 15 -31 29 -42 77 -18 77 7 0 27
-13 45 -30z m40 -59 c0 -5 -7 -11 -14 -14 -10 -4 -13 -1 -9 9 6 15 23 19 23 5z
m850 -424 c0 -2 -12 -14 -27 -28 l-28 -24 24 28 c23 25 31 32 31 24z"/>
<path d="M4515 8020 c-302 -46 -554 -198 -724 -435 -152 -212 -211 -391 -211
-644 0 -285 93 -530 273 -718 33 -35 66 -63 74 -63 21 0 15 44 -18 127 -73
184 -107 301 -128 440 -20 133 -16 179 38 432 21 99 27 113 40 92 5 -8 10 8
13 42 6 79 55 172 121 233 79 73 95 84 120 84 15 0 18 3 9 8 -10 7 -8 12 5 23
79 64 162 104 285 136 95 26 117 28 288 27 253 -1 345 -22 595 -139 100 -46
304 -171 349 -212 l28 -27 -32 65 c-39 76 -104 163 -181 240 -141 141 -350
246 -565 284 -90 16 -291 18 -379 5z"/>
<path d="M3871 7214 c0 -11 3 -14 6 -6 3 7 2 16 -1 19 -3 4 -6 -2 -5 -13z"/>
<path d="M3019 6850 c-61 -86 -176 -280 -366 -620 -170 -303 -435 -769 -527
-925 -149 -254 -159 -276 -158 -343 1 -63 20 -128 54 -174 l21 -31 -40 -76
c-58 -106 -76 -178 -71 -267 9 -135 64 -196 258 -284 74 -33 180 -85 235 -114
55 -28 116 -58 135 -66 19 -8 190 -90 380 -183 190 -93 428 -210 530 -259 102
-50 456 -223 787 -384 330 -162 604 -294 607 -294 3 0 63 -27 133 -61 272
-130 385 -165 498 -156 154 12 210 58 335 277 45 80 99 174 120 210 20 36 57
101 82 145 25 44 81 143 125 220 142 248 183 322 183 330 0 11 122 227 162
286 21 31 38 61 38 67 0 6 -54 61 -120 124 -67 62 -175 175 -242 251 -66 76
-124 135 -128 130 -4 -4 -59 -105 -122 -223 -131 -243 -160 -295 -305 -541
-57 -97 -124 -198 -147 -225 -90 -103 -286 -160 -421 -123 -95 26 -463 195
-1060 486 -220 108 -508 247 -640 310 -132 63 -400 192 -595 285 -195 94 -397
190 -449 215 -178 85 -181 105 -41 353 26 47 80 144 120 215 145 260 181 323
302 530 36 61 91 157 123 215 32 58 72 130 90 160 18 30 61 107 95 170 35 63
71 127 81 141 15 21 16 32 7 70 -5 24 -13 85 -16 134 l-7 90 -46 -65z m-688
-2211 c43 -23 56 -35 52 -48 -7 -29 80 -201 131 -258 45 -50 78 -68 669 -364
342 -171 626 -314 632 -318 5 -5 204 -106 440 -226 463 -234 923 -476 968
-507 15 -11 25 -24 22 -29 -4 -5 2 -9 12 -9 10 0 29 -9 43 -20 l25 -19 -46 13
c-25 8 -75 28 -112 45 -36 17 -89 40 -118 51 -59 24 -494 233 -799 385 -113
57 -331 164 -485 238 -154 74 -388 188 -520 252 -443 216 -829 401 -938 450
-120 53 -181 104 -197 164 -15 55 10 120 82 213 33 42 35 42 139 -13z m3229
-1804 c-13 -14 -28 -25 -34 -25 -13 0 35 49 48 49 5 1 -1 -10 -14 -24z"/>
<path d="M6274 6637 c-10 -29 -31 -158 -25 -161 3 -2 20 -6 36 -10 17 -4 58
-26 93 -48 58 -38 66 -40 104 -32 35 7 43 14 50 39 13 46 0 82 -41 117 -47 39
-211 111 -217 95z"/>
<path d="M6182 6298 c-21 -34 -48 -115 -41 -122 2 -2 57 -30 122 -64 133 -68
127 -68 158 21 21 59 2 82 -118 145 l-101 52 -20 -32z"/>
<path d="M3292 6078 c-5 -7 -13 -28 -17 -46 -6 -31 -5 -33 37 -52 68 -31 71
-26 36 45 -34 68 -39 73 -56 53z"/>
<path d="M3163 5810 c-12 -5 -26 -18 -32 -29 -15 -27 -14 -93 2 -114 12 -16
593 -297 615 -297 3 0 112 -54 242 -119 129 -65 424 -208 655 -316 230 -108
490 -233 577 -276 196 -98 250 -104 277 -28 15 44 -8 89 -62 120 -42 23 -363
175 -527 248 -47 21 -150 71 -230 111 -181 91 -573 269 -705 322 -115 45 -184
82 -273 145 -34 25 -86 54 -115 65 -28 10 -122 52 -207 93 -175 83 -186 87
-217 75z"/>
<path d="M2987 5492 c-10 -11 -17 -35 -17 -60 0 -62 32 -89 210 -172 234 -110
825 -394 1205 -580 781 -383 819 -400 865 -400 63 0 96 32 86 84 -6 32 -45 76
-67 76 -5 0 -138 63 -296 141 -159 77 -412 199 -563 272 -151 72 -391 189
-533 259 -141 70 -260 128 -262 128 -3 0 -129 61 -280 135 -159 78 -287 135
-303 135 -16 0 -36 -8 -45 -18z"/>
<path d="M4945 5348 c-16 -5 -93 -13 -170 -16 l-140 -7 98 -38 c53 -20 171
-73 262 -117 90 -44 166 -80 169 -80 3 0 84 -39 181 -87 212 -104 256 -113
298 -63 34 40 34 62 0 100 -37 40 -616 322 -656 319 -6 0 -25 -5 -42 -11z"/>
<path d="M2829 5191 c-18 -15 -23 -28 -22 -61 1 -23 8 -52 16 -64 8 -11 59
-41 113 -65 55 -25 241 -114 414 -199 326 -160 857 -417 1040 -504 498 -237
640 -301 677 -305 37 -5 46 -2 73 26 35 35 34 60 -4 98 -11 12 -104 60 -206
108 -467 219 -646 305 -1315 635 -576 284 -716 350 -740 350 -13 0 -33 -8 -46
-19z"/>
<path d="M7048 3783 c7 -3 16 -2 19 1 4 3 -2 6 -13 5 -11 0 -14 -3 -6 -6z"/>
<path d="M8005 3610 c10 -11 20 -20 23 -20 3 0 -3 9 -13 20 -10 11 -20 20 -23
20 -3 0 3 -9 13 -20z"/>
<path d="M8050 3566 c0 -2 8 -10 18 -17 15 -13 16 -12 3 4 -13 16 -21 21 -21
13z"/>
</g>
</svg>
